<?xml version="1.0" encoding="iso-8859-1"?>
<!-- Generator: Adobe Illustrator 24.3.0, SVG Export Plug-In . SVG Version: 6.00 Build 0)  -->
<svg version="1.1" id="Calque_1" xmlns="http://www.w3.org/2000/svg" xmlns:xlink="http://www.w3.org/1999/xlink" x="0px" y="0px"
	 width="841.89px" height="596.571px" viewBox="0 0 841.89 596.571" enable-background="new 0 0 841.89 596.571"
	 xml:space="preserve">
<g>
	<g>
		<path fill-rule="evenodd" clip-rule="evenodd" fill="#7CB92A" d="M485.668,121.718c-0.05,0.6-0.09,1.19-0.13,1.79
			c-0.2,3.11-0.24,6.22-0.18,9.33c0.1,6.21,0.53,12.41,1.19,18.59l0.09,0.83l0.63-0.55c5.01-4.33,9.48-9.4,12.7-15.24
			c1.54-2.95,2.9-6.04,3.61-9.32c0.41-1.79,0.69-3.6,0.83-5.43H485.668z M470.338,121.718c-0.01,4.67,0.64,9.33,2.01,13.79
			c1.84,5.98,4.75,11.69,8.86,16.41c-0.78-3.12-0.77-6.37-0.56-9.56c0.22-3.19,0.74-6.36,1.41-9.49c0.66-3.14,1.46-6.24,2.38-9.31
			c0.18-0.61,0.37-1.23,0.56-1.84H470.338z"/>
		<path fill-rule="evenodd" clip-rule="evenodd" fill="#7CB92A" d="M504.408,121.718c-0.14,1.83-0.42,3.64-0.83,5.43
			c-0.71,3.28-2.07,6.37-3.61,9.32c-3.22,5.84-7.69,10.91-12.7,15.24l-0.63,0.55l-0.09-0.83c-0.66-6.18-1.09-12.38-1.19-18.59
			c-0.06-3.11-0.02-6.22,0.18-9.33c0.04-0.6,0.08-1.19,0.13-1.79c0.09-1.06,0.2-2.12,0.35-3.17c0.2-1.43,0.47-2.86,0.86-4.26
			c-0.89,2.46-1.69,4.93-2.42,7.43h0.54c-0.19,0.61-0.38,1.23-0.56,1.84c-0.92,3.07-1.72,6.17-2.38,9.31
			c-0.67,3.13-1.19,6.3-1.41,9.49c-0.21,3.19-0.22,6.44,0.56,9.56c-4.11-4.72-7.02-10.43-8.86-16.41
			c-1.37-4.46-2.02-9.12-2.01-13.79h-121.86v20.16h-23.17v-20.16h-14.98v216.51h14.98v-20.16h23.17v18.64h178.36v-214.99H504.408z
			 M348.478,303.208h-23.17v-25.47h23.17V303.208z M348.478,262.868h-23.17v-25.46h23.17V262.868z M348.478,222.538h-23.17v-25.46
			h23.17V222.538z M348.478,182.208h-23.17v-25.46h23.17V182.208z"/>
		<g>
			<defs>
				<rect id="SVGID_1_" x="348.48" y="121.721" width="178.357" height="214.987"/>
			</defs>
			<clipPath id="SVGID_2_">
				<use xlink:href="#SVGID_1_"  overflow="visible"/>
			</clipPath>
			<g clip-path="url(#SVGID_2_)">
				<path fill="#FFFFFF" d="M510.534,341.946c0,0-9.842-40.963-3.767-66.192c6.075-25.228,15.689-30.527,14.74-34.374
					c-0.946-3.847-5.807-2.038-7.362,1.52c-1.555,3.558-7.916,11.23-13.762,9.994c-5.845-1.237-7.418-25.239-11.694-27.638
					c-4.276-2.399-2.791,8.694-1.132,18.311c1.66,9.617-6.527,4.264-11.634-7.27c-5.107-11.534-8.093-8.155-8.657-6.522
					c-0.565,1.632,11.225,22.207,10.354,23.192c-0.872,0.986-15.641-16.075-17.074-15.586c-1.435,0.488-3.882,1.837-0.354,7.211
					c3.528,5.374,14.605,14.408,13.899,15.917c-0.706,1.509-9.868-6.712-13.209-6.906c-3.34-0.194-1.985,4.515,4.006,8.806
					c5.991,4.29,20.659,8.975,21.129,25.191c0.47,16.214-3.748,54.282-3.748,54.282S492.685,356.124,510.534,341.946z"/>
				<path fill="#FFFFFF" d="M501.008,233.282c0,0-37.585-55.285,26.226-114.884c0,0,58.418,68.784-16.334,115.514
					c0,0,1.769-44.351,10.157-62.42C521.057,171.492,498.583,210.799,501.008,233.282z"/>
				<path fill="#FFFFFF" d="M456.183,239.576c0,0-44.404,31.216-93.6-19.831c0,0,55.1-48.301,93.986,11.792
					c0,0-36.029-0.873-50.804-7.453C405.765,224.085,437.962,241.83,456.183,239.576z"/>
				<path fill="#FFFFFF" d="M467.33,224.909c0,0-57.516-19.608-43.731-97.768c0,0,80.017,18.027,51.253,92.821
					c0,0-22.936-33.185-26.724-50.887C448.128,169.075,453.296,209.92,467.33,224.909z"/>
				<path fill="#FFFFFF" d="M415.08,195.158c0,0-33.805,5.315-47.445-37.248c0,0,44.608-12.007,49.9,32.808
					c0,0-20.143-10.513-26.674-18.344C390.861,172.373,404.144,191.367,415.08,195.158z"/>
				<path fill="#FFFFFF" d="M481.206,151.92c0,0-26.793-28.559,4.699-68.86c0,0,40.075,34.468,1.078,68.322
					c0,0-3.009-25.822,0.192-37.04C487.175,114.341,477.757,139.145,481.206,151.92z"/>
				<path fill="#FFFFFF" d="M457.813,267.398c0,0-13.411,35.608-62.059,25.444c0,0,12.867-49.729,59.112-30.254
					c0,0-21.221,13.71-32.379,15.728C422.487,278.317,448.145,275.894,457.813,267.398z"/>
			</g>
		</g>
		<path fill="#7BB92B" d="M486.898,114.238c0,0.01,0,0.01-0.01,0.02l0.56,0.19c0-0.01,0.01-0.02,0.01-0.03L486.898,114.238z
			 M480.648,142.358c0.22-3.19,0.74-6.36,1.41-9.49c0.66-3.14,1.46-6.24,2.38-9.31c0.18-0.61,0.37-1.23,0.56-1.84h-0.54
			c-0.17,0.57-0.33,1.14-0.49,1.71c-0.87,3.09-1.63,6.22-2.23,9.37c-0.62,3.16-1.09,6.34-1.25,9.55c-0.16,3.2-0.12,6.46,0.72,9.57
			C480.428,148.798,480.438,145.548,480.648,142.358z"/>
		<path fill="#7BB92B" d="M504.408,121.718c-0.14,1.83-0.42,3.64-0.83,5.43c-0.71,3.28-2.07,6.37-3.61,9.32
			c-3.22,5.84-7.69,10.91-12.7,15.24l-0.63,0.55l-0.09-0.83c-0.66-6.18-1.09-12.38-1.19-18.59c-0.06-3.11-0.02-6.22,0.18-9.33
			c0.04-0.6,0.08-1.19,0.13-1.79c0.09-1.06,0.2-2.12,0.35-3.17c0.2-1.43,0.47-2.86,0.86-4.26c0.01-0.01,0.01-0.02,0.01-0.03
			c0.01-0.01,0.01-0.01,0.01-0.02l0.56,0.18c0,0.01-0.01,0.02-0.01,0.03c-0.64,2.36-0.94,4.82-1.12,7.27
			c-0.05,0.61-0.08,1.22-0.12,1.83c-0.16,3.09-0.17,6.18-0.08,9.27c0.08,3.09,0.24,6.18,0.46,9.27c0.2,2.81,0.44,5.61,0.74,8.4
			c4.68-4.17,8.81-8.99,11.82-14.47c1.49-2.89,2.81-5.9,3.48-9.09c0.39-1.71,0.66-3.45,0.79-5.21c0.12-1.48,0.14-2.98,0.06-4.47
			c-0.33-6.51-2.56-12.83-5.73-18.53c-3.12-5.55-7.13-10.67-11.79-15.01c0.09-0.13,0.19-0.25,0.29-0.38l-0.63,0.06
			c0.12,0.11,0.23,0.21,0.34,0.32c-3.72,4.79-7,9.92-9.58,15.41l-0.98,2.12l-0.86,2.16l-0.43,1.09l-0.36,1.1l-0.73,2.22
			c-0.85,2.99-1.5,6.03-1.87,9.12c-0.17,1.59-0.27,3.19-0.28,4.79c-0.06,4.62,0.51,9.24,1.79,13.7c1.72,5.97,4.52,11.71,8.55,16.5
			c-4.11-4.72-7.02-10.43-8.86-16.41c-1.37-4.46-2.02-9.12-2.01-13.79c0-1.62,0.08-3.23,0.24-4.85c0.34-3.13,0.97-6.22,1.8-9.25
			l0.72-2.24l0.36-1.13l0.42-1.1l0.85-2.2l0.96-2.15c2.62-5.72,6.01-11.06,9.87-16.01l0.29-0.37l0.34,0.31
			c4.93,4.5,9.09,9.75,12.38,15.54c3.24,5.78,5.55,12.22,5.9,18.93C504.548,118.708,504.528,120.218,504.408,121.718z"/>
	</g>
	<g>
		<path fill="#7CB92A" d="M361.335,463.231c1.549,0.281,3.409,0.645,5.583,1.097c3.463,0.71,6.373,1.255,8.728,1.63
			c2.356,0.377,4.652,0.566,6.89,0.566c4.883,0,8.755-1.13,11.617-3.388c0.559,0.968,0.839,1.936,0.839,2.904
			c0,1.184-0.431,2.254-1.291,3.211c-0.861,0.957-2.092,1.715-3.695,2.275c-1.603,0.56-3.49,0.839-5.663,0.839
			c-0.925,0-1.807-0.044-2.646-0.129c-1.312-0.129-2.609-0.366-3.888-0.71c-1.28-0.344-2.694-0.795-4.244-1.355
			c-0.925,0.839-2.146,2.188-3.662,4.049c-1.516,1.862-3.265,4.427-5.244,7.697l-1.258,2.033l-0.678,1.128
			c1.398,0.152,2.571,0.227,3.517,0.227c1.182,0,2.291-0.102,3.323-0.306c1.033-0.204,2.066-0.566,3.098-1.082
			c-1.42,1.765-2.791,3.013-4.114,3.744c-1.324,0.731-2.706,1.097-4.147,1.097c-0.903,0-2.087-0.173-3.55-0.516l-3.001,5.002
			c-3.163,5.27-4.895,8.142-5.196,8.617c-2.388,3.807-5.034,6.808-7.938,9.002c-2.904,2.194-5.905,3.292-9.003,3.292
			c-0.495,0-1.022-0.033-1.581-0.098c-1.055-0.15-1.92-0.57-2.598-1.259c-0.678-0.687-1.08-1.495-1.21-2.419
			c-0.065-0.495-0.017-1.098,0.145-1.808c0.161-0.71,0.463-1.333,0.903-1.871c0.441-0.537,1.049-0.806,1.823-0.806
			c0.667,0,1.205,0.167,1.614,0.5c0.408,0.333,0.613,0.77,0.613,1.307c0,0.753-0.29,1.399-0.871,1.936s-1.237,0.807-1.969,0.807
			c-0.215,0-0.387-0.023-0.516-0.065c-0.065,0.194-0.097,0.377-0.097,0.548c0,0.41,0.14,0.791,0.419,1.146
			c0.279,0.354,0.645,0.585,1.097,0.693c0.323,0.065,0.635,0.096,0.936,0.096c1.957,0,3.99-1.026,6.099-3.081
			c2.108-2.054,4.087-4.61,5.938-7.664c0.559-0.84,1.796-2.77,3.711-5.792c1.914-3.022,3.883-6.192,5.905-9.504
			c-2.28-0.689-4.453-1.14-6.519-1.357c-0.516-0.042-0.893-0.065-1.129-0.065c-1.42,0-2.791,0.308-4.114,0.92
			c-1.324,0.614-2.393,1.415-3.211,2.404c-0.818,0.99-1.226,2.033-1.226,3.13c0,0.345,0.021,0.603,0.065,0.774
			c0.15,0.71,0.452,1.259,0.903,1.646c0.452,0.387,0.947,0.581,1.485,0.581c0.537,0,1.027-0.188,1.468-0.564
			c0.44-0.377,0.726-0.909,0.855-1.598c0.323,0.516,0.484,1.011,0.484,1.486c0,0.645-0.269,1.182-0.807,1.613
			c-0.538,0.431-1.173,0.645-1.904,0.645c-0.732,0-1.41-0.242-2.033-0.726c-0.624-0.485-1.076-1.21-1.355-2.179
			c-0.151-0.452-0.226-0.945-0.226-1.484c0-1.312,0.473-2.571,1.42-3.776c0.946-1.203,2.231-2.198,3.857-2.985
			c1.624-0.785,3.382-1.243,5.275-1.372c0.947-0.042,1.657-0.065,2.13-0.065c1.871,0,3.915,0.152,6.131,0.452l3.195-5.42
			l0.484-0.839c1.399-2.431,3.151-4.41,5.26-5.938c2.108-1.528,4.206-2.258,6.292-2.194l-2.839-1.13
			c-2.453-0.989-4.572-1.796-6.357-2.421c-1.786-0.624-3.813-1.151-6.083-1.582c-2.27-0.429-4.695-0.645-7.277-0.645
			c-0.818,0-1.432,0.012-1.84,0.033c-2.237,0.086-4.227,0.666-5.97,1.742c-1.743,1.076-3.088,2.415-4.034,4.017
			c-0.947,1.603-1.42,3.178-1.42,4.728c0,0.968,0.199,1.844,0.597,2.629c0.398,0.786,0.995,1.426,1.791,1.921
			c0.968,0.581,1.99,0.87,3.066,0.87c1.204,0,2.366-0.344,3.485-1.032c1.118-0.687,2.017-1.538,2.694-2.55
			c0.678-1.01,1.016-1.967,1.016-2.871c0-0.474-0.107-0.893-0.323-1.259c-0.107,0.645-0.414,1.205-0.919,1.678
			c-0.506,0.474-1.081,0.71-1.726,0.71s-1.167-0.236-1.565-0.71c-0.398-0.473-0.565-1.032-0.5-1.678
			c0.107-0.624,0.414-1.168,0.92-1.63c0.505-0.462,1.081-0.693,1.726-0.693c1.118,0,1.985,0.408,2.598,1.226
			c0.613,0.818,0.92,1.85,0.92,3.097c0,0.99-0.205,2-0.613,3.033c-0.409,1.034-1.017,1.969-1.823,2.808
			c-0.807,0.839-1.791,1.474-2.953,1.904c-0.99,0.387-2.119,0.581-3.388,0.581c-1.399,0-2.695-0.279-3.889-0.839
			c-1.194-0.56-2.125-1.42-2.791-2.581c-0.645-1.14-0.968-2.366-0.968-3.68c0-1.291,0.295-2.592,0.887-3.905
			c0.592-1.312,1.372-2.517,2.339-3.614c0.969-1.097,2.001-1.99,3.098-2.679c1.699-1.097,3.474-1.871,5.325-2.323
			c1.85-0.452,3.915-0.678,6.195-0.678c1.592,0,3.173,0.077,4.743,0.227C358.335,462.747,359.787,462.952,361.335,463.231z"/>
		<path fill="#7CB92A" d="M369.984,492.209c1.721-1.7,3.512-3.022,5.373-3.969c1.861-0.947,3.599-1.42,5.212-1.42
			c0.602,0,1.173,0.065,1.711,0.194c1.075,0.279,1.892,0.753,2.452,1.42c0.559,0.666,0.839,1.474,0.839,2.421
			c0,0.795-0.194,1.645-0.581,2.548c-1.14,2.691-3.222,4.691-6.244,6.003c-3.022,1.313-6.04,2.216-9.052,2.712
			c-1.054,2.538-1.581,4.592-1.581,6.163c0,1.592,0.548,2.529,1.645,2.808c0.28,0.065,0.582,0.096,0.904,0.096
			c1.053,0,2.146-0.354,3.275-1.064c1.129-0.711,2.167-1.679,3.114-2.905c0.172-0.171,0.301-0.258,0.387-0.258
			c0.043,0,0.065,0.033,0.065,0.098c0,0.086-0.065,0.248-0.194,0.483c-1.657,2.152-3.19,3.755-4.598,4.808
			c-1.41,1.055-2.845,1.582-4.308,1.582c-0.516,0-1.032-0.065-1.549-0.194c-1.356-0.344-2.383-1.08-3.082-2.21
			c-0.699-1.13-1.048-2.523-1.048-4.179c0-1.376,0.242-2.866,0.726-4.469s1.189-3.232,2.114-4.889
			C366.79,495.835,368.262,493.908,369.984,492.209z M376.164,492.37c-1.732,1.679-3.265,3.68-4.599,6.003
			c-0.56,0.99-1.011,1.85-1.355,2.581c1.785-0.323,3.71-1.182,5.776-2.581c2.065-1.399,3.824-2.92,5.276-4.566
			c1.452-1.645,2.178-2.898,2.178-3.759c0-0.602-0.387-0.903-1.161-0.903c-0.344,0-0.775,0.065-1.291,0.194
			C379.504,489.681,377.895,490.692,376.164,492.37z"/>
		<path fill="#7CB92A" d="M404.48,491.951c0,0.882-0.183,1.634-0.548,2.258c-0.366,0.624-1.022,0.936-1.969,0.936
			c-0.581,0-1.059-0.194-1.435-0.581c-0.377-0.387-0.565-0.861-0.565-1.421c0-0.71,0.247-1.318,0.742-1.823
			c0.494-0.504,1.086-0.758,1.775-0.758c0.086,0,0.172,0.01,0.258,0.033c0.086,0.021,0.172,0.031,0.258,0.031
			c-0.065-0.323-0.21-0.597-0.436-0.822c-0.226-0.227-0.533-0.425-0.92-0.597c-0.473-0.173-1-0.258-1.581-0.258
			c-1.312,0-2.571,0.404-3.776,1.21c-1.205,0.807-2.022,2.017-2.453,3.632c-0.107,0.473-0.161,0.893-0.161,1.258
			c0,0.645,0.107,1.28,0.323,1.904c0.215,0.624,0.56,1.409,1.033,2.356c0.537,1.118,0.973,2.125,1.306,3.016
			c0.334,0.893,0.576,1.9,0.726,3.018c0.043,0.387,0.065,0.689,0.065,0.903c0,1.205-0.323,2.41-0.968,3.614
			c-0.645,1.207-1.63,2.206-2.953,3.001c-1.324,0.797-2.953,1.195-4.889,1.195c-0.667,0-1.302-0.044-1.904-0.129
			c-2.195-0.302-3.83-1.053-4.906-2.258c-1.075-1.205-1.613-2.614-1.613-4.227c0-1.27,0.323-2.485,0.968-3.647
			c0.624-1.119,1.355-1.948,2.195-2.485c0.839-0.537,1.742-0.807,2.71-0.807c1.076,0,2.151,0.302,3.227,0.903
			c-0.624,0.087-1.237,0.512-1.839,1.276c-0.603,0.764-1.098,1.688-1.485,2.775c-0.387,1.086-0.581,2.135-0.581,3.147
			c0,0.882,0.167,1.646,0.5,2.291c0.333,0.645,0.844,1.097,1.533,1.355c0.365,0.15,0.742,0.225,1.129,0.225
			c1.011,0,1.818-0.504,2.421-1.516c0.602-1.011,0.903-2.216,0.903-3.615c0-0.3-0.044-0.774-0.129-1.42
			c-0.086-0.602-0.226-1.178-0.419-1.726c-0.194-0.549-0.484-1.307-0.872-2.275c-0.516-1.249-0.909-2.335-1.177-3.259
			c-0.269-0.926-0.404-1.915-0.404-2.97c0-2.129,0.5-3.861,1.501-5.195c1-1.334,2.243-2.291,3.727-2.872
			c1.485-0.581,2.99-0.87,4.518-0.87c0.84,0,1.603,0.086,2.291,0.258c2.087,0.516,3.334,1.678,3.743,3.484
			C404.437,491.015,404.48,491.5,404.48,491.951z"/>
		<path fill="#7CB92A" d="M412.611,506.956c0.065,0,0.097,0.033,0.097,0.098c0,0.173-0.151,0.419-0.452,0.741
			c-0.108,0.108-0.356,0.399-0.743,0.872c-0.753,0.947-1.479,1.775-2.178,2.485c-0.699,0.71-1.543,1.349-2.533,1.919
			c-0.99,0.57-2.033,0.855-3.13,0.855c-1.054,0-1.834-0.317-2.339-0.951c-0.505-0.635-0.758-1.511-0.758-2.631
			c0-1.549,0.414-3.453,1.242-5.711c0.828-2.258,1.92-4.583,3.276-6.97c0.215-0.408,0.672-1.161,1.372-2.258
			c0.699-1.097,1.221-1.925,1.565-2.485c1.871-2.968,2.892-4.593,3.065-4.873h-3.55l1.162-1.613h3.356
			c1.161-1.979,2.049-3.561,2.662-4.743c0.613-1.184,0.919-2.002,0.919-2.454c0-0.129-0.032-0.225-0.097-0.29h3.485
			c1.205,0,1.807,0.473,1.807,1.42c0,0.581-0.189,1.28-0.565,2.098c-0.377,0.818-0.898,1.796-1.565,2.935l-0.71,1.034h3.485
			l-1.226,1.613h-3.292l-0.774,1.226c-3.485,5.357-5.422,8.39-5.809,9.1c-1.635,2.926-2.85,5.222-3.647,6.889
			s-1.194,3.007-1.194,4.017c0,1.011,0.494,1.55,1.484,1.615c0.603,0.065,1.221-0.098,1.856-0.485s1.183-0.818,1.646-1.291
			c0.462-0.473,1.038-1.107,1.726-1.904C412.428,507.043,412.547,506.956,412.611,506.956z"/>
		<path fill="#7CB92A" d="M415.676,510.378c0-1.829,0.603-4.217,1.807-7.164c0.795-1.958,1.699-3.809,2.711-5.551
			c0.43-0.774,0.978-1.688,1.645-2.743c1.161-1.871,2.044-3.361,2.646-4.469c0.602-1.107,0.903-1.942,0.903-2.502
			c0-0.215-0.054-0.375-0.161-0.483h3.421c1.226,0,1.839,0.483,1.839,1.451c0,0.732-0.302,1.652-0.903,2.76
			c-0.603,1.109-1.441,2.49-2.517,4.146c-0.516,0.774-1.044,1.625-1.581,2.55c-1.635,2.926-2.851,5.222-3.647,6.889
			c-0.796,1.667-1.194,3.007-1.194,4.017c0,1.011,0.494,1.55,1.484,1.615c0.602,0.065,1.221-0.098,1.856-0.485
			c0.634-0.387,1.183-0.818,1.645-1.291c0.463-0.473,1.038-1.107,1.727-1.904c0.173-0.171,0.29-0.258,0.356-0.258
			c0.065,0,0.097,0.033,0.097,0.098c0,0.173-0.151,0.419-0.452,0.741c-0.107,0.108-0.355,0.399-0.742,0.872
			c-0.753,0.947-1.479,1.775-2.178,2.485c-0.699,0.71-1.543,1.349-2.533,1.919s-2.033,0.855-3.13,0.855
			C416.709,513.927,415.676,512.744,415.676,510.378z M429.52,484.771c-0.452-0.506-0.678-1.145-0.678-1.919
			c0-0.345,0.043-0.678,0.129-1.001c0.258-1.011,0.807-1.877,1.645-2.598c0.839-0.72,1.711-1.08,2.614-1.08
			c0.71,0,1.291,0.242,1.742,0.725c0.452,0.485,0.678,1.103,0.678,1.856c0,0.302-0.053,0.666-0.161,1.097
			c-0.258,1.011-0.796,1.877-1.613,2.598c-0.818,0.722-1.678,1.08-2.582,1.08C430.563,485.529,429.971,485.276,429.52,484.771z"/>
		<path fill="#7CB92A" d="M456.851,487.466c-0.236,0.452-1.409,2.517-3.517,6.195c-2.517,4.433-3.839,6.777-3.968,7.035
			c-2.174,3.744-4.518,6.879-7.035,9.407c-2.517,2.527-4.884,3.791-7.099,3.791c-0.344,0-0.753-0.052-1.226-0.161
			c-1.356-0.344-2.383-1.08-3.082-2.21c-0.699-1.13-1.048-2.533-1.048-4.211c0-1.808,0.431-3.84,1.291-6.1
			c0.301-0.71,0.807-1.742,1.516-3.097c0.711-1.355,1.259-2.366,1.646-3.033l1.065-1.873c1.075-1.892,1.84-3.285,2.291-4.178
			c0.452-0.893,0.602-1.415,0.452-1.565l3.485,0c1.182,0,1.775,0.473,1.775,1.42s-0.657,2.539-1.968,4.775
			c-0.689,1.119-1.98,3.4-3.872,6.841c-1.442,2.926-2.162,5.282-2.162,7.068c0,1.57,0.569,2.506,1.71,2.808
			c0.215,0.065,0.452,0.096,0.711,0.096c1.333,0,2.753-0.833,4.26-2.5c1.505-1.667,3.119-3.986,4.84-6.955
			c0.279-0.516,2.151-3.807,5.615-9.874l2.13-3.678H456.851z"/>
		<path fill="#7CB92A" d="M479.439,506.956c0.043,0,0.065,0.033,0.065,0.098c0,0.173-0.151,0.419-0.452,0.741
			c-0.065,0.065-0.269,0.312-0.613,0.743c-1.161,1.484-2.377,2.754-3.647,3.807c-1.27,1.055-2.711,1.582-4.324,1.582
			c-2.044,0-3.066-1.182-3.066-3.549c0-0.776,0.119-1.7,0.355-2.776c-1.635,1.958-3.254,3.496-4.856,4.614
			c-1.603,1.119-3.125,1.678-4.566,1.678c-0.344,0-0.753-0.052-1.226-0.161c-1.356-0.344-2.383-1.08-3.082-2.21
			c-0.699-1.13-1.048-2.523-1.048-4.179c0-1.376,0.242-2.866,0.726-4.469c0.484-1.603,1.188-3.232,2.114-4.889
			c1.227-2.15,2.7-4.077,4.421-5.776c1.721-1.7,3.512-3.022,5.373-3.969s3.599-1.42,5.212-1.42c0.602,0,1.173,0.065,1.711,0.194
			c2.215,0.56,3.355,1.85,3.42,3.872c0.753-1.334,1.13-2.302,1.13-2.904c0-0.237-0.054-0.408-0.161-0.516h3.42
			c1.227,0,1.841,0.483,1.841,1.451c0,0.732-0.303,1.652-0.903,2.76c-0.603,1.109-1.443,2.49-2.518,4.146
			c-0.516,0.774-1.044,1.625-1.581,2.55c-1.636,2.926-2.851,5.222-3.647,6.889c-0.796,1.667-1.194,3.007-1.194,4.017
			c0,1.011,0.495,1.55,1.485,1.615c0.602,0.065,1.221-0.098,1.856-0.485c0.634-0.387,1.182-0.818,1.645-1.291
			c0.462-0.473,1.038-1.107,1.726-1.904C479.224,507.043,479.353,506.956,479.439,506.956z M471.178,498.922
			c0.452-0.797,0.688-1.216,0.71-1.259l0.194-0.323c0.818-1.505,1.436-2.775,1.856-3.809c0.419-1.032,0.63-1.903,0.63-2.613
			c0-0.56-0.167-1.001-0.5-1.324c-0.333-0.323-0.844-0.485-1.532-0.485c-1.012,0-2.157,0.404-3.437,1.211
			c-1.28,0.806-2.56,1.915-3.84,3.324c-1.28,1.409-2.426,2.985-3.436,4.727c-1.032,1.829-1.84,3.544-2.421,5.147
			c-0.581,1.603-0.871,2.964-0.871,4.082c0,0.882,0.199,1.582,0.597,2.098c0.398,0.516,0.995,0.774,1.791,0.774
			c1.333,0,2.753-0.833,4.26-2.5c1.505-1.667,3.119-3.986,4.84-6.955C470.167,500.783,470.554,500.083,471.178,498.922z"/>
		<path fill="#7CB92A" d="M492.927,506.956c0.065,0,0.096,0.033,0.096,0.098c0,0.173-0.15,0.419-0.452,0.741
			c-0.108,0.108-0.354,0.399-0.741,0.872c-0.753,0.947-1.48,1.775-2.179,2.485c-0.699,0.71-1.544,1.349-2.533,1.919
			s-2.033,0.855-3.13,0.855c-1.053,0-1.834-0.317-2.339-0.951c-0.504-0.635-0.758-1.511-0.758-2.631
			c0-1.549,0.414-3.453,1.241-5.711c0.828-2.258,1.921-4.583,3.276-6.97c0.152-0.279,0.554-0.957,1.211-2.033
			c0.656-1.074,1.23-2.033,1.726-2.872c4.109-6.798,7.433-12.412,9.972-16.845c2.538-4.431,3.636-6.819,3.291-7.164h3.421
			c1.226,0,1.84,0.485,1.84,1.453c0,0.926-0.657,2.485-1.969,4.679c-1.721,2.818-4.125,6.783-7.212,11.891
			c-3.088,5.11-5.417,8.977-6.987,11.601c-1.636,2.926-2.851,5.222-3.647,6.889c-0.795,1.667-1.195,3.007-1.195,4.017
			c0,1.011,0.495,1.55,1.486,1.615c0.602,0.065,1.22-0.098,1.855-0.485c0.635-0.387,1.182-0.818,1.646-1.291
			c0.462-0.473,1.037-1.107,1.726-1.904C492.744,507.043,492.863,506.956,492.927,506.956z"/>
	</g>
	<g>
		<path fill="#3F3F3B" d="M74.301,385.23v8.399H49.926v15.375h21.225v8.325H49.926v22.5h-8.775v-54.6H74.301z"/>
		<path fill="#3F3F3B" d="M94.4,385.23v54.6h-8.775v-54.6H94.4z"/>
		<path fill="#3F3F3B" d="M118.174,385.23v46.199H145.1v8.4h-35.7v-54.6H118.174z"/>
		<path fill="#3F3F3B" d="M211.774,383.28v56.55h-8.7v-31.575l-19.125,27.15h-0.15l-18.675-25.875v30.3h-8.475v-56.55h0.075
			l27.225,38.55l27.675-38.55H211.774z"/>
		<path fill="#3F3F3B" d="M242.899,392.655c-2.7,0-4.837,0.6-6.413,1.8c-1.575,1.2-2.362,2.85-2.362,4.95
			c0,2.051,0.987,3.763,2.962,5.138c1.975,1.375,4.737,2.737,8.288,4.087c2.7,0.95,5.012,2.038,6.938,3.263
			c1.924,1.226,3.512,2.888,4.762,4.987c1.25,2.101,1.875,4.751,1.875,7.95c0,2.9-0.725,5.525-2.175,7.875
			c-1.451,2.351-3.551,4.226-6.3,5.625c-2.75,1.4-6,2.1-9.75,2.1c-3.3,0-6.551-0.513-9.75-1.537
			c-3.201-1.024-6.051-2.438-8.55-4.237l3.9-6.825c1.85,1.4,4.037,2.562,6.562,3.487c2.524,0.926,4.862,1.388,7.013,1.388
			c2.649,0,4.975-0.638,6.975-1.912c1.999-1.275,3-3.237,3-5.888c0-2.101-0.838-3.85-2.513-5.25
			c-1.676-1.399-4.012-2.675-7.012-3.825c-3.101-1.149-5.676-2.287-7.725-3.412c-2.051-1.125-3.813-2.7-5.288-4.726
			c-1.476-2.024-2.212-4.562-2.212-7.612c0-4.449,1.512-8.037,4.538-10.763c3.024-2.725,7.012-4.187,11.962-4.388
			c3.6,0,6.762,0.413,9.487,1.238c2.725,0.824,5.262,1.987,7.613,3.487l-3.3,6.675C250.723,393.88,246.548,392.655,242.899,392.655z
			"/>
		<path fill="#3F3F3B" d="M330.647,385.23v8.399h-27.45v14.55h24.45v8.4h-24.45v14.85h28.5v8.4h-37.275v-54.6H330.647z"/>
		<path fill="#3F3F3B" d="M391.996,385.23v56.55h-0.225l-39.375-38.175l0.225,36.225h-8.85v-56.475h0.45l39.225,38.625l-0.15-36.75
			H391.996z"/>
		<path fill="#3F3F3B" d="M461.069,389.879c3.499,3.101,5.25,7.4,5.25,12.9c0,3.149-0.626,6.088-1.875,8.812
			c-1.25,2.726-3.263,4.95-6.037,6.675c-2.775,1.725-6.338,2.588-10.688,2.588h-7.875v18.975h-8.775v-54.6h15.45
			C452.719,385.23,457.569,386.78,461.069,389.879z M453.532,410.917c1.474-1.024,2.523-2.275,3.149-3.75
			c0.625-1.475,0.938-2.888,0.938-4.238c0-2.299-0.738-4.425-2.212-6.375c-1.476-1.949-3.964-2.925-7.463-2.925h-8.1v18.825h7.875
			C450.119,412.455,452.057,411.943,453.532,410.917z"/>
		<path fill="#3F3F3B" d="M485.669,385.23v46.199h26.925v8.4h-35.7v-54.6H485.669z"/>
		<path fill="#3F3F3B" d="M560.367,385.23v8.399h-27.449v14.55h24.449v8.4h-24.449v14.85h28.5v8.4h-37.275v-54.6H560.367z"/>
		<path fill="#3F3F3B" d="M582.268,385.23v54.6h-8.775v-54.6H582.268z"/>
		<path fill="#3F3F3B" d="M645.491,385.23v56.55h-0.225l-39.375-38.175l0.225,36.225h-8.85v-56.475h0.45l39.225,38.625l-0.149-36.75
			H645.491z"/>
		<path fill="#3F3F3B" d="M712.615,427.004H692.74l-5.25,12.825h-8.625l24.15-56.85h0.524l24.15,56.85h-10.05L712.615,427.004z
			 M709.691,419.504l-6.825-17.25l-7.05,17.25H709.691z"/>
		<path fill="#3F3F3B" d="M745.765,385.23v54.6h-8.775v-54.6H745.765z"/>
		<path fill="#3F3F3B" d="M790.613,439.83l-12.3-18.975h-0.899h-7.875v18.975h-8.775v-54.6h15.375c6.1,0,10.987,1.55,14.662,4.649
			c3.676,3.101,5.513,7.4,5.513,12.9c0,3.351-0.712,6.463-2.138,9.337c-1.425,2.876-3.663,5.089-6.712,6.638l13.274,21.075H790.613z
			 M769.539,412.455h7.8c3.499,0,6.037-0.962,7.612-2.888c1.575-1.924,2.362-4.087,2.362-6.487c0-1.399-0.3-2.812-0.899-4.237
			c-0.601-1.425-1.626-2.649-3.075-3.675c-1.451-1.024-3.351-1.538-5.7-1.538h-8.1V412.455z"/>
	</g>
</g>
<g>
</g>
<g>
</g>
<g>
</g>
<g>
</g>
<g>
</g>
<g>
</g>
</svg>
